<?xml version="1.0" encoding="UTF-8" standalone="no"?>
<!DOCTYPE svg PUBLIC "-//W3C//DTD SVG 1.1//EN" "http://www.w3.org/Graphics/SVG/1.1/DTD/svg11.dtd">
<svg width="100%" height="100%" viewBox="0 0 10240 10240" version="1.1" xmlns="http://www.w3.org/2000/svg" xmlns:xlink="http://www.w3.org/1999/xlink" xml:space="preserve" xmlns:serif="http://www.serif.com/" style="fill-rule:evenodd;clip-rule:evenodd;stroke-linejoin:round;stroke-miterlimit:2;">
    <g transform="matrix(235.789625,0,0,235.789625,-981943.972207,-1314768.857086)">
        <path d="M4202.596,5582.67C4203.729,5582.67 4204.479,5582.987 4204.846,5583.62C4205.212,5584.254 4205.396,5584.92 4205.396,5585.62C4205.396,5585.72 4205.321,5585.87 4205.171,5586.07C4205.021,5586.27 4204.837,5586.47 4204.621,5586.67C4204.404,5586.87 4204.187,5587.045 4203.971,5587.195C4203.754,5587.345 4203.579,5587.42 4203.446,5587.42L4202.596,5587.42C4202.362,5587.42 4202.162,5587.437 4201.996,5587.47C4201.562,5587.537 4201.262,5587.654 4201.096,5587.82C4200.596,5587.82 4200.221,5587.929 4199.971,5588.145C4199.721,5588.362 4199.529,5588.637 4199.396,5588.97C4199.262,5589.304 4199.187,5589.67 4199.171,5590.07C4199.154,5590.47 4199.146,5590.837 4199.146,5591.17L4199.146,5598.12C4199.146,5598.487 4199.196,5598.77 4199.296,5598.97C4199.396,5599.17 4199.479,5599.354 4199.546,5599.52C4199.712,5599.72 4199.804,5599.92 4199.821,5600.12C4199.837,5600.32 4199.846,5600.537 4199.846,5600.77L4199.696,5602.42C4199.696,5602.887 4199.762,5603.345 4199.896,5603.795C4200.029,5604.245 4200.096,5604.57 4200.096,5604.77L4200.696,5606.17L4200.696,5607.57C4200.696,5608.17 4200.987,5608.587 4201.571,5608.82C4202.154,5609.054 4202.787,5609.245 4203.471,5609.395C4204.154,5609.545 4204.787,5609.712 4205.371,5609.895C4205.954,5610.079 4206.246,5610.42 4206.246,5610.92C4206.246,5611.92 4205.779,5612.42 4204.846,5612.42L4203.046,5612.42C4202.812,5612.42 4202.562,5612.429 4202.296,5612.445C4202.029,5612.462 4201.762,5612.554 4201.496,5612.72L4197.346,5612.42L4194.996,5612.42C4194.896,5612.42 4194.662,5612.437 4194.296,5612.47C4193.929,5612.504 4193.537,5612.537 4193.121,5612.57C4192.704,5612.604 4192.312,5612.637 4191.946,5612.67C4191.579,5612.704 4191.346,5612.72 4191.246,5612.72C4190.746,5612.72 4190.387,5612.687 4190.171,5612.62C4189.954,5612.554 4189.846,5612.304 4189.846,5611.87C4189.846,5611.404 4189.971,5610.895 4190.221,5610.345C4190.471,5609.795 4190.946,5609.52 4191.646,5609.52L4194.546,5609.52C4194.779,5609.52 4194.971,5609.445 4195.121,5609.295C4195.271,5609.145 4195.371,5608.962 4195.421,5608.745C4195.471,5608.529 4195.504,5608.312 4195.521,5608.095C4195.537,5607.879 4195.546,5607.704 4195.546,5607.57C4195.546,5607.137 4195.454,5606.62 4195.271,5606.02C4195.087,5605.42 4194.996,5605.004 4194.996,5604.77L4194.996,5600.07C4194.996,5599.937 4194.971,5599.712 4194.921,5599.395C4194.871,5599.079 4194.796,5598.762 4194.696,5598.445C4194.596,5598.129 4194.487,5597.854 4194.371,5597.62C4194.254,5597.387 4194.129,5597.27 4193.996,5597.27C4193.929,5597.27 4193.787,5597.412 4193.571,5597.695C4193.354,5597.979 4193.104,5598.345 4192.821,5598.795C4192.537,5599.245 4192.221,5599.745 4191.871,5600.295C4191.521,5600.845 4191.187,5601.387 4190.871,5601.92C4190.554,5602.454 4190.262,5602.937 4189.996,5603.37C4189.729,5603.804 4189.529,5604.137 4189.396,5604.37C4189.129,5604.57 4188.904,5604.837 4188.721,5605.17C4188.537,5605.504 4188.379,5605.845 4188.246,5606.195C4188.112,5606.545 4187.996,5606.895 4187.896,5607.245C4187.796,5607.595 4187.696,5607.887 4187.596,5608.12C4187.329,5608.587 4187.071,5608.995 4186.821,5609.345C4186.571,5609.695 4186.362,5609.987 4186.196,5610.22C4185.929,5610.787 4185.746,5611.112 4185.646,5611.195C4185.546,5611.279 4185.362,5611.32 4185.096,5611.32C4184.696,5611.32 4184.437,5611.187 4184.321,5610.92C4184.204,5610.654 4183.996,5610.27 4183.696,5609.77L4183.296,5606.72C4183.062,5606.12 4182.796,5605.504 4182.496,5604.87C4182.196,5604.237 4181.921,5603.595 4181.671,5602.945C4181.421,5602.295 4181.212,5601.654 4181.046,5601.02C4180.879,5600.387 4180.796,5599.787 4180.796,5599.22L4180.796,5598.67C4180.796,5598.537 4180.746,5598.312 4180.646,5597.995C4180.546,5597.679 4180.429,5597.362 4180.296,5597.045C4180.162,5596.729 4180.012,5596.454 4179.846,5596.22C4179.679,5595.987 4179.529,5595.87 4179.396,5595.87C4179.296,5595.87 4179.162,5596.02 4178.996,5596.32C4178.829,5596.62 4178.671,5596.97 4178.521,5597.37C4178.371,5597.77 4178.246,5598.179 4178.146,5598.595C4178.046,5599.012 4177.996,5599.32 4177.996,5599.52L4177.996,5602.97C4177.862,5603.837 4177.729,5604.62 4177.596,5605.32C4177.496,5605.92 4177.404,5606.504 4177.321,5607.07C4177.237,5607.637 4177.196,5607.987 4177.196,5608.12C4177.196,5609.054 4177.362,5609.687 4177.696,5610.02C4178.029,5610.354 4178.396,5610.57 4178.796,5610.67C4179.196,5610.77 4179.562,5610.87 4179.896,5610.97C4180.229,5611.07 4180.396,5611.37 4180.396,5611.87C4180.396,5612.237 4180.321,5612.512 4180.171,5612.695C4180.021,5612.879 4179.846,5613.012 4179.646,5613.095C4179.446,5613.179 4179.246,5613.229 4179.046,5613.245C4178.846,5613.262 4178.696,5613.27 4178.596,5613.27L4176.646,5613.27L4171.896,5612.42L4170.096,5612.42C4169.996,5612.487 4169.879,5612.537 4169.746,5612.57C4169.546,5612.67 4169.329,5612.72 4169.096,5612.72L4168.146,5612.72C4168.046,5612.72 4167.896,5612.704 4167.696,5612.67C4167.496,5612.637 4167.296,5612.579 4167.096,5612.495C4166.896,5612.412 4166.721,5612.32 4166.571,5612.22C4166.421,5612.12 4166.346,5612.004 4166.346,5611.87C4166.346,5611.537 4166.471,5611.245 4166.721,5610.995C4166.971,5610.745 4167.254,5610.537 4167.571,5610.37C4167.887,5610.204 4168.196,5610.087 4168.496,5610.02C4168.796,5609.954 4168.996,5609.92 4169.096,5609.92L4170.096,5609.92C4170.196,5609.92 4170.396,5609.904 4170.696,5609.87C4170.996,5609.837 4171.312,5609.787 4171.646,5609.72C4172.012,5609.654 4172.429,5609.587 4172.896,5609.52C4173.129,5609.287 4173.362,5608.879 4173.596,5608.295C4173.829,5607.712 4174.029,5607.112 4174.196,5606.495C4174.362,5605.879 4174.504,5605.312 4174.621,5604.795C4174.737,5604.279 4174.796,5603.954 4174.796,5603.82L4174.796,5601.47C4174.896,5601.37 4174.979,5601.212 4175.046,5600.995C4175.112,5600.779 4175.162,5600.554 4175.196,5600.32C4175.229,5600.054 4175.246,5599.787 4175.246,5599.52L4175.246,5597.27C4175.246,5597.137 4175.271,5596.937 4175.321,5596.67C4175.371,5596.404 4175.429,5596.137 4175.496,5595.87C4175.596,5595.57 4175.696,5595.254 4175.796,5594.92L4175.796,5593.52C4175.862,5593.32 4175.929,5593.12 4175.996,5592.92C4176.062,5592.754 4176.112,5592.57 4176.146,5592.37C4176.179,5592.17 4176.196,5591.954 4176.196,5591.72L4176.196,5590.62C4176.196,5590.52 4176.146,5590.295 4176.046,5589.945C4175.946,5589.595 4175.829,5589.237 4175.696,5588.87C4175.562,5588.437 4175.412,5587.954 4175.246,5587.42C4175.079,5587.187 4174.846,5586.97 4174.546,5586.77C4174.246,5586.57 4173.962,5586.37 4173.696,5586.17C4173.496,5586.004 4173.254,5585.845 4172.971,5585.695C4172.687,5585.545 4172.462,5585.32 4172.296,5585.02L4172.296,5584.47C4172.296,5584.27 4172.379,5584.12 4172.546,5584.02C4172.712,5583.92 4172.912,5583.837 4173.146,5583.77C4173.379,5583.704 4173.662,5583.67 4173.996,5583.67L4175.246,5583.67C4175.579,5583.67 4175.821,5583.645 4175.971,5583.595C4176.121,5583.545 4176.229,5583.479 4176.296,5583.395C4176.362,5583.312 4176.412,5583.245 4176.446,5583.195C4176.479,5583.145 4176.546,5583.12 4176.646,5583.12L4179.946,5583.12L4181.346,5583.67C4181.679,5584.537 4182.037,5585.595 4182.421,5586.845C4182.804,5588.095 4183.196,5589.42 4183.596,5590.82C4183.996,5592.22 4184.387,5593.612 4184.771,5594.995C4185.154,5596.379 4185.521,5597.62 4185.871,5598.72C4186.221,5599.82 4186.529,5600.712 4186.796,5601.395C4187.062,5602.079 4187.279,5602.42 4187.446,5602.42C4187.512,5602.254 4187.596,5602.104 4187.696,5601.97C4187.762,5601.837 4187.854,5601.695 4187.971,5601.545C4188.087,5601.395 4188.196,5601.27 4188.296,5601.17C4188.796,5599.47 4189.471,5597.704 4190.321,5595.87C4191.171,5594.037 4191.929,5592.287 4192.596,5590.62C4192.596,5589.92 4192.804,5589.312 4193.221,5588.795C4193.637,5588.279 4194.079,5587.67 4194.546,5586.97C4194.646,5586.737 4194.712,5586.429 4194.746,5586.045C4194.779,5585.662 4194.837,5585.279 4194.921,5584.895C4195.004,5584.512 4195.146,5584.154 4195.346,5583.82C4195.546,5583.487 4195.879,5583.254 4196.346,5583.12L4198.296,5583.12L4198.996,5583.52C4199.462,5583.52 4199.896,5583.479 4200.296,5583.395C4200.696,5583.312 4201.079,5583.22 4201.446,5583.12C4201.812,5582.987 4202.196,5582.837 4202.596,5582.67Z"/>
    </g>
</svg>
